<?xml version="1.0" encoding="UTF-8" standalone="no"?>
<!-- Created with Inkscape (http://www.inkscape.org/) -->

<svg
   version="1.1"
   id="svg2"
   width="109.13386"
   height="16.205669"
   viewBox="0 0 109.13386 16.205669"
   sodipodi:docname="claim.svg"
   inkscape:version="1.4.2 (f4327f4, 2025-05-13)"
   xmlns:inkscape="http://www.inkscape.org/namespaces/inkscape"
   xmlns:sodipodi="http://sodipodi.sourceforge.net/DTD/sodipodi-0.dtd"
   xmlns="http://www.w3.org/2000/svg"
   xmlns:svg="http://www.w3.org/2000/svg">
  <sodipodi:namedview
     id="namedview1"
     pagecolor="#505050"
     bordercolor="#eeeeee"
     borderopacity="1"
     inkscape:showpageshadow="0"
     inkscape:pageopacity="0"
     inkscape:pagecheckerboard="0"
     inkscape:deskcolor="#505050"
     inkscape:zoom="5.7859803"
     inkscape:cx="50.812478"
     inkscape:cy="30.764017"
     inkscape:window-width="1920"
     inkscape:window-height="1009"
     inkscape:window-x="1912"
     inkscape:window-y="-1"
     inkscape:window-maximized="1"
     inkscape:current-layer="svg2" />
  <defs
     id="defs6" />
  <g
     id="g8"
     transform="scale(1.3333333)"
     style="fill:#2b2b2b;fill-opacity:1">
    <g
       id="g10"
       style="fill:#2b2b2b;fill-opacity:1">
      <path
         d="M 2.367,9.141 C 1.172,9.141 1.172,8.062 1.172,7.598 V 2.949 c 0,-0.742 -0.031,-1.14 -0.11,-1.594 L 2.281,1.086 c 0.086,0.332 0.098,0.785 0.098,1.496 v 4.629 c 0,0.73 0.031,0.851 0.117,0.98 0.066,0.098 0.25,0.149 0.391,0.086 L 3.078,9.012 C 2.863,9.098 2.637,9.141 2.367,9.141 Z"
         style="fill:#2b2b2b;fill-opacity:1;fill-rule:nonzero;stroke:none"
         id="path12" />
      <path
         d="m 4.742,2.758 c -0.433,0 -0.765,-0.36 -0.765,-0.789 0,-0.442 0.343,-0.797 0.785,-0.797 0.422,0 0.777,0.344 0.777,0.797 0,0.429 -0.355,0.789 -0.797,0.789 z M 4.148,9.02 V 3.652 L 5.344,3.434 V 9.02 Z"
         style="fill:#2b2b2b;fill-opacity:1;fill-rule:nonzero;stroke:none"
         id="path14" />
      <path
         d="M 9.367,9.043 H 8.324 L 6.359,3.609 7.578,3.434 8.527,6.379 c 0.184,0.57 0.336,1.219 0.336,1.219 h 0.02 c 0,0 0.121,-0.649 0.324,-1.262 l 0.906,-2.77 h 1.239 z"
         style="fill:#2b2b2b;fill-opacity:1;fill-rule:nonzero;stroke:none"
         id="path16" />
      <path
         d="m 12.973,2.758 c -0.434,0 -0.766,-0.36 -0.766,-0.789 0,-0.442 0.344,-0.797 0.785,-0.797 0.422,0 0.778,0.344 0.778,0.797 0,0.429 -0.356,0.789 -0.797,0.789 z M 12.379,9.02 V 3.652 L 13.574,3.434 V 9.02 Z"
         style="fill:#2b2b2b;fill-opacity:1;fill-rule:nonzero;stroke:none"
         id="path18" />
      <path
         d="M 18.266,9.02 V 5.398 c 0,-0.746 -0.172,-0.949 -0.625,-0.949 -0.344,0 -0.84,0.258 -1.196,0.613 V 9.02 H 15.277 V 5.008 c 0,-0.57 -0.05,-0.903 -0.203,-1.293 l 1.078,-0.301 c 0.129,0.246 0.196,0.484 0.196,0.777 0.582,-0.496 1.09,-0.757 1.672,-0.757 0.839,0 1.421,0.507 1.421,1.511 V 9.02 Z"
         style="fill:#2b2b2b;fill-opacity:1;fill-rule:nonzero;stroke:none"
         id="path20" />
      <path
         d="m 25.262,4.438 c -0.227,0 -0.387,-0.043 -0.422,-0.055 0.035,0.035 0.355,0.39 0.355,0.949 0,0.949 -0.785,1.672 -2.07,1.672 -0.387,0.141 -0.73,0.348 -0.73,0.519 0,0.204 0.074,0.227 1.359,0.227 0.871,0 1.808,0.441 1.808,1.551 0,1.164 -0.968,1.789 -2.425,1.789 -1.41,0 -2.438,-0.461 -2.438,-1.488 0,-0.258 0.11,-0.582 0.11,-0.582 h 1.121 c 0,0 -0.086,0.218 -0.086,0.39 0,0.504 0.429,0.785 1.195,0.785 0.844,0 1.297,-0.343 1.297,-0.851 0,-0.594 -0.496,-0.754 -1.512,-0.754 -1.465,0 -1.789,-0.293 -1.789,-0.832 0,-0.539 0.453,-0.754 1.035,-0.938 -0.82,-0.238 -1.242,-0.765 -1.242,-1.543 0,-1.109 0.875,-1.843 2.18,-1.843 0.777,0 1.219,0.281 1.66,0.281 0.355,0 0.691,-0.129 0.992,-0.375 l 0.551,0.742 C 25.91,4.34 25.629,4.438 25.262,4.438 Z M 22.996,4.332 c -0.601,0 -0.937,0.332 -0.937,0.945 0,0.629 0.355,0.918 0.937,0.918 0.617,0 0.942,-0.324 0.942,-0.925 0,-0.618 -0.313,-0.938 -0.942,-0.938 z"
         style="fill:#2b2b2b;fill-opacity:1;fill-rule:nonzero;stroke:none"
         id="path22" />
      <path
         d="M 31.066,9.02 V 2.668 c 0,-0.527 -0.035,-0.895 -0.121,-1.313 l 1.188,-0.293 c 0.062,0.344 0.105,0.876 0.105,1.446 V 9.02 Z m 3.321,0 -2.059,-3.082 1.617,-2.372 h 1.434 L 33.512,5.871 35.82,9.02 Z"
         style="fill:#2b2b2b;fill-opacity:1;fill-rule:nonzero;stroke:none"
         id="path24" />
      <path
         d="M 39.754,9.02 V 5.398 c 0,-0.746 -0.172,-0.949 -0.625,-0.949 -0.344,0 -0.84,0.258 -1.195,0.613 V 9.02 H 36.766 V 5.008 c 0,-0.57 -0.051,-0.903 -0.204,-1.293 l 1.079,-0.301 c 0.129,0.246 0.195,0.484 0.195,0.777 0.582,-0.496 1.09,-0.757 1.672,-0.757 0.84,0 1.422,0.507 1.422,1.511 V 9.02 Z"
         style="fill:#2b2b2b;fill-opacity:1;fill-rule:nonzero;stroke:none"
         id="path26" />
      <path
         d="m 44.699,9.16 c -1.476,0 -2.406,-1.109 -2.406,-2.855 0,-1.75 0.937,-2.871 2.383,-2.871 1.554,0 2.437,1.156 2.437,2.882 0,1.754 -0.937,2.844 -2.414,2.844 z M 44.688,4.332 c -0.754,0 -1.079,0.57 -1.079,1.895 0,1.585 0.399,2.05 1.11,2.05 0.703,0 1.09,-0.57 1.09,-1.941 0,-1.543 -0.43,-2.004 -1.121,-2.004 z"
         style="fill:#2b2b2b;fill-opacity:1;fill-rule:nonzero;stroke:none"
         id="path28" />
      <path
         d="M 53.523,9.043 H 52.41 L 51.742,6.531 C 51.57,5.883 51.387,5.043 51.387,5.043 h -0.02 c 0,0 -0.09,0.539 -0.355,1.539 l -0.66,2.461 h -1.11 L 47.754,3.641 48.93,3.477 49.523,6.121 c 0.149,0.68 0.278,1.434 0.278,1.434 h 0.035 c 0,0 0.105,-0.711 0.312,-1.465 l 0.7,-2.524 h 1.164 l 0.617,2.457 c 0.226,0.883 0.344,1.555 0.344,1.555 h 0.031 c 0,0 0.129,-0.832 0.269,-1.469 l 0.563,-2.543 h 1.226 z"
         style="fill:#2b2b2b;fill-opacity:1;fill-rule:nonzero;stroke:none"
         id="path30" />
      <path
         d="m 57.32,9.141 c -1.199,0 -1.199,-1.079 -1.199,-1.543 V 2.949 c 0,-0.742 -0.031,-1.14 -0.105,-1.594 l 1.218,-0.269 c 0.086,0.332 0.098,0.785 0.098,1.496 v 4.629 c 0,0.73 0.031,0.851 0.117,0.98 0.067,0.098 0.25,0.149 0.387,0.086 l 0.195,0.735 C 57.816,9.098 57.59,9.141 57.32,9.141 Z"
         style="fill:#2b2b2b;fill-opacity:1;fill-rule:nonzero;stroke:none"
         id="path32" />
      <path
         d="m 60.051,6.617 v 0.086 c 0,0.754 0.281,1.551 1.347,1.551 0.508,0 0.95,-0.184 1.36,-0.539 l 0.461,0.723 c -0.571,0.484 -1.227,0.722 -1.961,0.722 -1.543,0 -2.512,-1.109 -2.512,-2.855 0,-0.961 0.203,-1.598 0.68,-2.137 0.441,-0.508 0.98,-0.734 1.672,-0.734 0.539,0 1.035,0.14 1.496,0.562 0.476,0.43 0.715,1.102 0.715,2.371 v 0.25 z m 1.047,-2.285 c -0.668,0 -1.036,0.527 -1.036,1.41 h 2.016 c 0,-0.883 -0.387,-1.41 -0.98,-1.41 z"
         style="fill:#2b2b2b;fill-opacity:1;fill-rule:nonzero;stroke:none"
         id="path34" />
      <path
         d="M 68.051,9.02 C 68,8.902 67.988,8.828 67.957,8.602 c -0.367,0.367 -0.801,0.539 -1.34,0.539 -1.39,0 -2.23,-1.09 -2.23,-2.793 0,-1.715 0.949,-2.879 2.265,-2.879 0.461,0 0.84,0.148 1.172,0.496 0,0 -0.031,-0.422 -0.031,-0.895 V 1.074 l 1.176,0.184 v 5.867 c 0,1.078 0.066,1.625 0.172,1.895 z M 67.793,4.859 c -0.27,-0.293 -0.594,-0.441 -0.992,-0.441 -0.754,0 -1.098,0.602 -1.098,1.918 0,1.207 0.235,1.812 1.129,1.812 0.445,0 0.801,-0.25 0.961,-0.519 z"
         style="fill:#2b2b2b;fill-opacity:1;fill-rule:nonzero;stroke:none"
         id="path36" />
      <path
         d="m 74.805,4.438 c -0.227,0 -0.387,-0.043 -0.418,-0.055 0.031,0.035 0.355,0.39 0.355,0.949 0,0.949 -0.789,1.672 -2.07,1.672 -0.391,0.141 -0.734,0.348 -0.734,0.519 0,0.204 0.074,0.227 1.359,0.227 0.871,0 1.812,0.441 1.812,1.551 0,1.164 -0.972,1.789 -2.425,1.789 -1.414,0 -2.438,-0.461 -2.438,-1.488 0,-0.258 0.106,-0.582 0.106,-0.582 h 1.121 c 0,0 -0.086,0.218 -0.086,0.39 0,0.504 0.433,0.785 1.199,0.785 0.84,0 1.293,-0.343 1.293,-0.851 0,-0.594 -0.496,-0.754 -1.508,-0.754 -1.469,0 -1.793,-0.293 -1.793,-0.832 0,-0.539 0.453,-0.754 1.035,-0.938 -0.82,-0.238 -1.238,-0.765 -1.238,-1.543 0,-1.109 0.871,-1.843 2.176,-1.843 0.777,0 1.219,0.281 1.664,0.281 0.355,0 0.687,-0.129 0.988,-0.375 l 0.551,0.742 C 75.453,4.34 75.172,4.438 74.805,4.438 Z M 72.543,4.332 c -0.605,0 -0.938,0.332 -0.938,0.945 0,0.629 0.356,0.918 0.938,0.918 0.613,0 0.937,-0.324 0.937,-0.925 0,-0.618 -0.312,-0.938 -0.937,-0.938 z"
         style="fill:#2b2b2b;fill-opacity:1;fill-rule:nonzero;stroke:none"
         id="path38" />
      <path
         d="m 77.531,6.617 v 0.086 c 0,0.754 0.281,1.551 1.348,1.551 0.508,0 0.949,-0.184 1.359,-0.539 l 0.461,0.723 c -0.57,0.484 -1.226,0.722 -1.961,0.722 -1.543,0 -2.511,-1.109 -2.511,-2.855 0,-0.961 0.203,-1.598 0.679,-2.137 0.442,-0.508 0.981,-0.734 1.672,-0.734 0.539,0 1.035,0.14 1.496,0.562 0.477,0.43 0.715,1.102 0.715,2.371 v 0.25 z m 1.047,-2.285 c -0.668,0 -1.035,0.527 -1.035,1.41 h 2.016 c 0,-0.883 -0.387,-1.41 -0.981,-1.41 z"
         style="fill:#2b2b2b;fill-opacity:1;fill-rule:nonzero;stroke:none"
         id="path40" />
      <path
         d="m 29.465,8.066 c 0,-0.652 -0.535,-1.171 -1.188,-1.171 -0.636,0 -1.144,0.519 -1.144,1.171 0,0.668 0.519,1.219 1.176,1.219 0.621,0 1.156,-0.551 1.156,-1.219"
         style="fill:#2b2b2b;fill-opacity:1;fill-rule:nonzero;stroke:none"
         id="path42" />
    </g>
  </g>
</svg>
