<?xml version="1.0" encoding="UTF-8" standalone="no"?>
<svg
   width="212.60001"
   height="57.200001"
   fill="#333f48"
   version="1.1"
   id="svg8"
   sodipodi:docname="logo.svg"
   xml:space="preserve"
   inkscape:version="1.4.2 (f4327f4, 2025-05-13)"
   xmlns:inkscape="http://www.inkscape.org/namespaces/inkscape"
   xmlns:sodipodi="http://sodipodi.sourceforge.net/DTD/sodipodi-0.dtd"
   xmlns:xlink="http://www.w3.org/1999/xlink"
   xmlns="http://www.w3.org/2000/svg"
   xmlns:svg="http://www.w3.org/2000/svg"><defs
     id="defs8" /><sodipodi:namedview
     id="namedview8"
     pagecolor="#505050"
     bordercolor="#eeeeee"
     borderopacity="1"
     inkscape:showpageshadow="0"
     inkscape:pageopacity="0"
     inkscape:pagecheckerboard="0"
     inkscape:deskcolor="#505050"
     inkscape:zoom="1.4850572"
     inkscape:cx="231.6409"
     inkscape:cy="64.643973"
     inkscape:window-width="1920"
     inkscape:window-height="1009"
     inkscape:window-x="1912"
     inkscape:window-y="-1"
     inkscape:window-maximized="1"
     inkscape:current-layer="svg8" /><g
     id="g8"><g
       id="A"
       style="fill:#2b2b2b;fill-opacity:1"><circle
         id="B"
         cx="199.60001"
         cy="24.1"
         r="1.3"
         style="fill:#2b2b2b;fill-opacity:1" /><use
         xlink:href="#B"
         x="4"
         id="use1"
         style="fill:#2b2b2b;fill-opacity:1" /></g><use
       xlink:href="#A"
       x="-59.900002"
       y="20.1"
       id="use2"
       style="fill:#2b2b2b;fill-opacity:1" /><path
       id="C"
       d="m 195.8,36 -0.3,-1.3 c -0.4,0.1 -0.6,0.2 -0.9,0.2 -0.9,0 -1.2,-0.3 -1.2,-1.5 V 28 h 1.8 l 0.6,-1.4 h -2.3 c 0,-1 0.1,-2.1 0.2,-2.9 l -2.2,0.5 c -0.1,0.7 -0.1,1.6 -0.1,2.4 h -1.1 v 1.5 h 1.1 v 6 c 0,1.4 0.7,2.5 2.5,2.5 0.7,0 1.3,-0.1 1.9,-0.4 z"
       style="fill:#2b2b2b;fill-opacity:1" /><use
       xlink:href="#C"
       x="16.799999"
       id="use3"
       style="fill:#2b2b2b;fill-opacity:1" /><use
       xlink:href="#C"
       x="-22.799999"
       y="20.6"
       id="use4"
       style="fill:#2b2b2b;fill-opacity:1" /><path
       id="D"
       d="m 179.7,36.5 c -1.2,0 -2.5,-0.4 -3.7,-1.1 l 0.7,-1.5 c 0.9,0.5 2,1 3.1,1 0.9,0 1.6,-0.6 1.6,-1.4 0,-0.7 -0.5,-1.1 -1.6,-1.4 l -1.2,-0.2 c -1.5,-0.3 -2.3,-1.3 -2.3,-2.7 0,-1.8 1.5,-3.1 3.6,-3.1 1.3,0 2.4,0.4 3.2,0.8 l -0.7,1.5 c -0.9,-0.5 -1.6,-0.7 -2.4,-0.7 -0.9,0 -1.5,0.5 -1.5,1.2 0,0.6 0.3,0.9 1.3,1.1 l 1.2,0.3 c 2,0.5 2.5,1.6 2.5,2.7 0,2 -1.6,3.3 -3.9,3.3 z"
       style="fill:#2b2b2b;fill-opacity:1" /><use
       xlink:href="#D"
       x="-17.5"
       y="20.6"
       id="use5"
       style="fill:#2b2b2b;fill-opacity:1" /><path
       id="E"
       d="m 161.4,32 v 0.2 c 0,1.3 0.5,2.8 2.4,2.8 0.9,0 1.7,-0.3 2.4,-1 l 0.8,1.3 c -1,0.9 -2.2,1.3 -3.5,1.3 -2.7,0 -4.4,-2 -4.5,-5.1 0,-1.7 0.4,-2.8 1.2,-3.8 0.8,-0.9 1.7,-1.3 3,-1.3 1,0 1.8,0.2 2.7,1 0.8,0.8 1.3,2 1.3,4.2 V 32 Z m 1.9,-4.1 c -1.2,0 -1.2,0.9 -1.8,2.5 h 3.6 c 0,-1.6 -0.7,-2.5 -1.7,-2.5 z M 175,26.4 c -0.2,-0.1 -0.4,-0.2 -0.7,-0.2 -0.9,0 -1.7,0.5 -2.5,1.5 0,-0.5 -0.1,-1.1 -0.4,-1.5 l -1.9,0.5 c 0.2,0.6 0.3,1.3 0.3,2.6 v 6.8 h 2.1 v -6.5 c 0.2,-0.8 0.9,-1.4 1.8,-1.4 0.2,0 0.4,0.1 0.6,0.1 z"
       style="fill:#2b2b2b;fill-opacity:1" /><use
       xlink:href="#E"
       x="15.3"
       y="20.6"
       id="use6"
       style="fill:#2b2b2b;fill-opacity:1" /><g
       id="F"
       style="fill:#2b2b2b;fill-opacity:1"><circle
         cx="146"
         cy="23.700001"
         r="1.4"
         id="circle6"
         style="fill:#2b2b2b;fill-opacity:1" /><path
         d="m 147.1,36.2 v -9.9 l -2.1,0.4 v 9.6 z"
         id="path6"
         style="fill:#2b2b2b;fill-opacity:1" /></g><use
       xlink:href="#F"
       x="41"
       id="use7"
       style="fill:#2b2b2b;fill-opacity:1" /><path
       id="G"
       d="m 139.8,36.2 v -6.4 c 0,-1.3 -0.3,-1.7 -1.1,-1.7 -0.6,0 -1.5,0.5 -2.1,1.1 v 7 h -2.1 v -7.1 c 0,-1 -0.1,-1.6 -0.4,-2.3 l 1.9,-0.5 c 0.2,0.4 0.3,0.9 0.3,1.4 1,-0.9 1.9,-1.3 3,-1.4 1.5,0 2.5,0.9 2.5,2.7 v 7.2 z"
       style="fill:#2b2b2b;fill-opacity:1" /><use
       xlink:href="#G"
       x="14.1"
       y="20.6"
       id="use8"
       style="fill:#2b2b2b;fill-opacity:1" /><path
       d="M 48.3,18.9 H 61.9 V 14.6 H 48.3 Z M 51.1,6 h 8 v 2 h -8 z m 3.1,-1.8 h 1.9 V 0 H 54.2 Z M 68.6,23 h 41.8 v 4.3 H 68.6 Z M 0,27.2 H 41.8 V 23 H 0 Z m 110.3,9.6 H 0 v -2 h 110.3 z m 0,15.7 H 0 v 4.3 h 110.3 z m 22.6,4.3 -0.6,-8.2 -0.1,-2.3 -0.5,2.1 -2.4,8.4 h -1.9 l -2.2,-8 -0.6,-2.5 -0.1,2.5 -0.6,8 h -2.2 l 1.2,-13.2 h 2.9 l 2,7.5 c 0.3,1.1 0.4,1.9 0.5,2.3 0.1,-0.4 0.2,-1.3 0.5,-2.2 l 2.1,-7.5 h 2.9 l 1.1,13.2 h -2.1 z m 13,-0.7 c 0,0 -0.6,-0.5 -0.6,-1.9 v -7.3 l -2,0.4 v 6.9 c -0.3,0.7 -1.2,1.3 -1.9,1.3 -1.2,0 -1.4,-0.9 -1.4,-2.1 v -6.5 l -2.1,0.4 v 6.6 c 0,1.2 0.2,1.8 0.5,2.3 0.5,0.6 1.3,1 2.4,1 1.1,0 2,-0.4 2.8,-1.2 0.2,0.6 0.4,0.9 0.8,1.2 z M 131.2,32.5 V 23 H 129 v 8.9 c 0,1.8 -0.8,2.7 -2.4,2.7 -1.6,0 -2.4,-0.7 -2.4,-2.7 V 23 H 122 v 9.6 c 0,2.1 1.1,3.9 4.6,3.9 2.9,0 4.6,-1.5 4.6,-3.9 z m 26.8,-6 h -2.2 l -1.6,4.9 c -0.4,1.1 -0.6,2.2 -0.6,2.2 l -0.6,-2.2 -1.7,-5.2 -2.2,0.3 3.5,9.6 h 1.9 l 3.5,-9.7 z m 47.8,8.7 -1.1,1.3 c -0.6,-0.2 -1.1,-0.7 -1.3,-1.3 -0.8,0.9 -1.6,1.1 -2.7,1.1 -2.2,0 -3.2,-1.2 -3.2,-2.9 0,-2.2 1.7,-3.4 4.8,-3.4 h 0.6 v -0.5 c 0,-1.1 -0.2,-1.7 -1.3,-1.7 -1.4,0 -2.9,1.1 -2.9,1.1 l -0.9,-1.5 c 1.5,-0.9 2.7,-1.3 4.1,-1.3 1.5,0 2.5,0.6 2.9,1.6 0.2,0.4 0.2,0.9 0.2,2.4 v 2.8 c 0,1.3 0.1,1.7 0.8,2.2 z m -3.3,-3.6 c -2.1,0 -2.7,0.6 -2.7,1.8 0,0.9 0.5,1.5 1.3,1.5 0.7,0 1.3,-0.4 1.7,-1 v -2.3 h -0.1 z"
       id="path8"
       style="fill:#2b2b2b;fill-opacity:1" /></g></svg>
